<svg xmlns="http://www.w3.org/2000/svg" xmlns:xlink="http://www.w3.org/1999/xlink" viewBox="0 0 1122.51 908.18"><defs><style>.bcdd8a72-4236-4a50-b617-2cdd91cd83df{fill:#ee5a33;}.b6cc015a-9dc7-4f80-8613-5e95c8ec7988{fill:#e33e2b;}.b47d13b7-48dc-4b15-847b-8236c288c9f8{fill:#fffaec;}.ba22fc9d-85ca-4f6e-aaaf-ba4349292fbd{fill:url(#acd76785-2da0-4060-9fca-8ba294f9632f);}.ede17fdb-f65d-4b0a-a200-61fb63176661{fill:#282828;}.e6acf13a-b901-4823-82bd-66db4450731e{fill:#dbc170;}</style><linearGradient id="acd76785-2da0-4060-9fca-8ba294f9632f" x1="510.24" y1="880.71" x2="310.28" y2="331.32" gradientTransform="matrix(1, -0.01, -0.01, 0.95, -11.26, -48.3)" gradientUnits="userSpaceOnUse"><stop offset="0" stop-color="#fcf6ad"/><stop offset="0.15" stop-color="#fcf2a8"/><stop offset="0.32" stop-color="#fbe79a"/><stop offset="0.51" stop-color="#fad582"/><stop offset="0.71" stop-color="#f9bb61"/><stop offset="0.91" stop-color="#f79b37"/><stop offset="1" stop-color="#f68a21"/></linearGradient></defs><g id="fac84346-41bb-4d47-a14b-f32ee417fefb" data-name="Layer 2"><g id="f6af42ef-dafc-4e1b-8a20-31847e78a38e" data-name="Layer 1"><path class="bcdd8a72-4236-4a50-b617-2cdd91cd83df" d="M1122.38,328.8c-100.51-.57-202.68,36.72-284.31,95.34C926.76,350,1010.69,279.69,1075.4,180.75c15.44-23.6,28.36-50.2,28.56-78.41.07-9.48-2-20.13-9.88-25.42-4.74-3.18-10.7-3.78-16.38-4.29C957.63,61.87,837.36,60.49,719.79,91.26a534.94,534.94,0,0,0-52.6,16.63c-14.14,5.3-37.28,11-48.51,21.29,39.19-35.91,71.45-80.06,92-129.18A1851,1851,0,0,0,246.93,140.74C102.06,200,0,342.43,0,508.65,0,639.67,66.44,764.56,174.93,838c133.31,90.22,298.73,83.54,445.6,35.7,53.86-17.54,112-36.24,161.36-64.78,170.29-98.51,266.94-194.62,323.47-383.06C1113.38,399.09,1123.77,356.7,1122.38,328.8Z"/><path class="b6cc015a-9dc7-4f80-8613-5e95c8ec7988" d="M652.72,42.22a353.33,353.33,0,0,1-55.07,64,31.12,31.12,0,0,0,42.05,45.89c3.82-3.44,18.95-8.47,26.23-10.89,4.29-1.43,8.34-2.78,12.19-4.22a505.66,505.66,0,0,1,49.55-15.65c63.2-16.54,131.84-24.58,209.85-24.58,40.6,0,84.88,2.17,135.3,6.64-.47,17.37-8,36.58-23.46,60.29-62.42,95.42-144.42,164-231.25,236.55a31.12,31.12,0,0,0,38.11,49.15,491,491,0,0,1,126-65.36,434.25,434.25,0,0,1,106.53-22.86,451,451,0,0,1-13.21,55.7c-26.5,88.34-62.3,156.24-112.66,213.68-46.35,52.87-107,99.55-196.58,151.39-45.58,26.36-99.87,44-152.37,61.13l-3.05,1c-67.17,21.88-132.3,33-193.58,33-85.67,0-161.35-21.83-224.94-64.86A369.29,369.29,0,0,1,31.12,508.65a364.27,364.27,0,0,1,63.7-206.48,367.67,367.67,0,0,1,163.9-132.63l1.08-.46A1817.74,1817.74,0,0,1,652.72,42.22M710.69,0A1851,1851,0,0,0,246.93,140.74C102.06,200,0,342.43,0,508.65,0,639.67,66.44,764.56,174.93,838c73.82,50,157.48,70.2,242.38,70.2,68.44,0,137.67-13.15,203.22-34.5,53.86-17.54,112-36.24,161.36-64.78,170.29-98.51,266.94-194.62,323.47-383.06,8-26.75,18.41-69.14,17-97h-2.26c-99.78,0-201,37.16-282,95.34C926.76,350,1010.69,279.69,1075.4,180.75c15.44-23.6,28.36-50.2,28.56-78.41.07-9.48-2-20.13-9.88-25.42-4.74-3.18-10.7-3.78-16.38-4.29-46.75-4.19-93.54-7-140.18-7-73.14,0-145.93,6.8-217.73,25.59a534.94,534.94,0,0,0-52.6,16.63c-14.14,5.3-37.28,11-48.51,21.29,39.19-35.91,71.45-80.06,92-129.18Z"/><path class="b47d13b7-48dc-4b15-847b-8236c288c9f8" d="M268.42,273.9s-4.09-58.74,158.22-126.84,136.2,48.81,187.27,71.51,188.62,202,89.77,347.3"/><path class="b47d13b7-48dc-4b15-847b-8236c288c9f8" d="M375.56,794.44s70.08,100.35,207.23,12c0,0,68.09-55.43,33.55-117.95"/><path class="ba22fc9d-85ca-4f6e-aaaf-ba4349292fbd" d="M672.66,454.44C757.69,609.6,662.59,749,452.48,788.1c-205.33,47.88-310.57-54-345-201.87S172.27,292,327.61,252.56C563.25,197.62,598.66,319.4,672.66,454.44Z"/><path class="b47d13b7-48dc-4b15-847b-8236c288c9f8" d="M695.69,709c0,26.47-55.64,39.93-120.23,39.93s-133.32-26.53-133.32-53,43.94-58.08,108.53-58.08S695.69,682.58,695.69,709Z"/><path class="ede17fdb-f65d-4b0a-a200-61fb63176661" d="M160.46,552.85a10.16,10.16,0,0,1-3.53-.35A10,10,0,0,1,150,540.18a124.56,124.56,0,0,1,23.53-42.3c16.1-19,45.25-40.89,92.65-37.34a10,10,0,1,1-1.5,19.95c-31.05-2.33-56.42,7.69-75.42,29.78a106.24,106.24,0,0,0-20,35.36A10,10,0,0,1,160.46,552.85Z"/><path class="e6acf13a-b901-4823-82bd-66db4450731e" d="M430.51,432.51s53.34,166.84-28.37,266.72C402.14,699.23,537.2,628.86,430.51,432.51Z"/></g></g></svg>